<svg width="19" height="19" viewBox="0 0 19 19" fill="none" xmlns="http://www.w3.org/2000/svg">
<path d="M9.97063 18.4122L9.96113 18.4138L9.90492 18.4415L9.88909 18.4446L9.87801 18.4415L9.8218 18.413C9.81335 18.4109 9.80702 18.4125 9.8028 18.4177L9.79963 18.4256L9.78617 18.7645L9.79013 18.7803L9.79805 18.7906L9.88038 18.8492L9.89225 18.8524L9.90176 18.8492L9.98409 18.7906L9.99359 18.7779L9.99675 18.7645L9.9833 18.4264C9.98119 18.418 9.97696 18.4132 9.97063 18.4122ZM10.1796 18.3227L10.1685 18.3243L10.0229 18.3979L10.015 18.4059L10.0126 18.4146L10.0268 18.755L10.0308 18.7645L10.0371 18.7708L10.1963 18.8436C10.2063 18.8463 10.2139 18.8442 10.2192 18.8373L10.2224 18.8262L10.1955 18.3401C10.1928 18.3301 10.1875 18.3243 10.1796 18.3227ZM9.61359 18.3243C9.6101 18.3222 9.60593 18.3215 9.60195 18.3224C9.59797 18.3233 9.59448 18.3257 9.59221 18.3291L9.58746 18.3401L9.56055 18.8262C9.56107 18.8357 9.56556 18.8421 9.57401 18.8452L9.58588 18.8436L9.74501 18.77L9.75292 18.7637L9.7553 18.755L9.76955 18.4146L9.76717 18.4051L9.75925 18.3971L9.61359 18.3243Z" fill="#838999"/>
<path d="M9.49987 1.58301C8.03013 1.58301 6.62059 2.16686 5.58132 3.20612C4.54206 4.24539 3.95821 5.65493 3.95821 7.12467V9.91768C3.95832 10.0405 3.92986 10.1616 3.87508 10.2716L2.51579 12.9893C2.44939 13.1221 2.41804 13.2697 2.42471 13.418C2.43138 13.5663 2.47585 13.7104 2.55391 13.8367C2.63196 13.963 2.741 14.0672 2.87067 14.1395C3.00034 14.2118 3.14634 14.2497 3.29479 14.2497H15.705C15.8534 14.2497 15.9994 14.2118 16.1291 14.1395C16.2588 14.0672 16.3678 13.963 16.4458 13.8367C16.5239 13.7104 16.5684 13.5663 16.575 13.418C16.5817 13.2697 16.5504 13.1221 16.484 12.9893L15.1255 10.2716C15.0704 10.1617 15.0417 10.0405 15.0415 9.91768V7.12467C15.0415 5.65493 14.4577 4.24539 13.4184 3.20612C12.3792 2.16686 10.9696 1.58301 9.49987 1.58301ZM9.49987 16.6247C9.00852 16.6249 8.52919 16.4728 8.12793 16.1892C7.72667 15.9056 7.42324 15.5046 7.25946 15.0413H11.7403C11.5765 15.5046 11.2731 15.9056 10.8718 16.1892C10.4706 16.4728 9.99122 16.6249 9.49987 16.6247Z" fill="#838999"/>
</svg>
