<svg width="26" height="26" viewBox="0 0 26 26" fill="none" xmlns="http://www.w3.org/2000/svg">
<path fill-rule="evenodd" clip-rule="evenodd" d="M9.43676 2.12061H15.9789C18.8524 2.12061 21.1744 3.25514 21.2063 6.1392V22.2348C21.2063 22.415 21.1638 22.5953 21.079 22.7543C20.9412 23.0088 20.7079 23.1997 20.4216 23.2845C20.1459 23.3693 19.8385 23.3269 19.584 23.1785L12.7131 19.743L5.83168 23.1785C5.6737 23.2622 5.49238 23.3163 5.31213 23.3163C4.71835 23.3163 4.24121 22.8286 4.24121 22.2348V6.1392C4.24121 3.25514 6.5739 2.12061 9.43676 2.12061ZM8.71625 10.2003H16.7004C17.1564 10.2003 17.5275 9.82811 17.5275 9.36263C17.5275 8.89609 17.1564 8.52498 16.7004 8.52498H8.71625C8.26031 8.52498 7.8892 8.89609 7.8892 9.36263C7.8892 9.82811 8.26031 10.2003 8.71625 10.2003Z" fill="#4A4A4A"/>
</svg>
