<svg width="19" height="19" viewBox="0 0 19 19" fill="none" xmlns="http://www.w3.org/2000/svg">
<g clip-path="url(#clip0_1584_12325)">
<path d="M2.94085 11.5357V13.3452C2.94809 14.6173 3.54885 14.4196 3.99399 14.0378L6.5599 11.7211V12.8928C6.5599 13.9921 6.81323 14.2499 7.91704 14.2499H11.9885C11.9885 14.2499 14.3449 17.0208 14.3635 17.0022C14.7028 17.4166 15.6215 17.2755 15.6075 16.5118V14.2499H16.9647C18.073 14.2499 18.3218 13.9744 18.3218 12.8928V6.10708C18.3218 5.02137 18.0549 4.74994 16.9647 4.74994H12.4408V3.84518C12.4408 2.7278 12.2328 2.48804 11.0837 2.48804H1.58371C0.516086 2.48804 0.226562 2.71875 0.226562 3.84518V9.72613C0.226562 10.8295 0.475372 11.5357 1.58371 11.5357H2.94085ZM14.2504 12.8928V15.0285L12.4408 12.8928H8.36942C8.03013 12.8928 7.91704 12.7707 7.91704 12.4404V6.55947C7.91704 6.25637 8.05728 6.10708 8.36942 6.10708H16.5123C16.824 6.10708 16.9647 6.27447 16.9647 6.53232V12.4404C16.9647 12.7666 16.8023 12.8928 16.5123 12.8928H14.2504Z" fill="#838999"/>
</g>
<defs>
<clipPath id="clip0_1584_12325">
<rect width="19" height="19" fill="white"/>
</clipPath>
</defs>
</svg>
