<svg width="24" height="24" viewBox="0 0 24 24" fill="none" xmlns="http://www.w3.org/2000/svg">
<path d="M12.0008 0C10.2335 0 8.80078 1.43269 8.80078 3.20002V6.40003H15.2008V3.20002C15.2008 1.43269 13.7681 0 12.0008 0Z" fill="#9FA4A9"/>
<path d="M8.80078 7.67993V10.8799C8.80078 12.6472 10.2335 14.08 12.0008 14.08C13.7681 14.08 15.2008 12.6473 15.2008 10.8799V7.67993H8.80078Z" fill="#9FA4A9"/>
<path d="M19.041 10.8801H17.121C17.121 13.7033 14.8241 16.0001 12.001 16.0001C9.17777 16.0001 6.88094 13.7033 6.88094 10.8801H4.96094C4.96094 14.4363 7.61163 17.3847 11.041 17.8544V22.0801H8.80094V24.0001H15.2009V22.0801H12.961V17.8544C16.3903 17.3847 19.041 14.4363 19.041 10.8801Z" fill="#9FA4A9"/>
</svg>
