<svg width="19" height="19" viewBox="0 0 19 19" fill="none" xmlns="http://www.w3.org/2000/svg">
<path d="M7.12565 1.58325C5.05148 1.58325 3.36523 3.2695 3.36523 5.34367C3.36523 7.37825 4.95648 9.02492 7.03065 9.09617C7.09398 9.08825 7.15732 9.08825 7.20482 9.09617C7.22065 9.09617 7.22857 9.09617 7.2444 9.09617C7.25232 9.09617 7.25232 9.09617 7.26023 9.09617C9.2869 9.02492 10.8782 7.37825 10.8861 5.34367C10.8861 3.2695 9.19982 1.58325 7.12565 1.58325Z" fill="#838999"/>
<path d="M11.1477 11.2011C8.93895 9.72855 5.3369 9.72855 3.11232 11.2011C2.1069 11.874 1.55273 12.7844 1.55273 13.7581C1.55273 14.7319 2.1069 15.6344 3.1044 16.2994C4.21273 17.0436 5.6694 17.4156 7.12607 17.4156C8.5827 17.4156 10.0394 17.0436 11.1477 16.2994C12.1452 15.6265 12.6994 14.724 12.6994 13.7423C12.6915 12.7686 12.1452 11.8661 11.1477 11.2011Z" fill="#838999"/>
<path d="M15.8249 5.80937C15.9516 7.3452 14.8591 8.69099 13.347 8.87308C13.3391 8.87308 13.3391 8.87308 13.3312 8.87308H13.3074C13.2599 8.87308 13.2124 8.87308 13.1728 8.88891C12.4049 8.92849 11.7003 8.68308 11.1699 8.23183C11.9853 7.50353 12.4524 6.41103 12.3574 5.22353C12.302 4.58228 12.0803 3.99645 11.7478 3.4977C12.0487 3.34728 12.397 3.25228 12.7533 3.22062C14.3049 3.08603 15.6903 4.24187 15.8249 5.80937Z" fill="#838999"/>
<path d="M17.4076 13.134C17.3442 13.9019 16.8534 14.5669 16.0301 15.0181C15.2384 15.4536 14.2409 15.6594 13.2513 15.6356C13.8213 15.1211 14.1538 14.4798 14.2171 13.799C14.2963 12.8173 13.8292 11.8752 12.8951 11.1231C12.3646 10.7036 11.7471 10.3711 11.0742 10.1256C12.8238 9.61898 15.0246 9.9594 16.3784 11.0519C17.1067 11.6377 17.4788 12.374 17.4076 13.134Z" fill="#838999"/>
</svg>
