<svg width="23" height="23" viewBox="0 0 23 23" fill="none" xmlns="http://www.w3.org/2000/svg">
<path d="M12.6495 11.4998L8.91198 7.76231C8.73629 7.58662 8.64844 7.36301 8.64844 7.09148C8.64844 6.81995 8.73629 6.59634 8.91198 6.42065C9.08768 6.24495 9.31129 6.1571 9.58281 6.1571C9.85434 6.1571 10.078 6.24495 10.2536 6.42065L14.662 10.829C14.7578 10.9248 14.8259 11.0286 14.8661 11.1404C14.9064 11.2522 14.9262 11.372 14.9255 11.4998C14.9255 11.6276 14.9057 11.7474 14.8661 11.8592C14.8265 11.971 14.7585 12.0748 14.662 12.1706L10.2536 16.579C10.078 16.7547 9.85434 16.8425 9.58281 16.8425C9.31128 16.8425 9.08767 16.7547 8.91198 16.579C8.73628 16.4033 8.64844 16.1797 8.64844 15.9081C8.64844 15.6366 8.73628 15.413 8.91198 15.2373L12.6495 11.4998Z" fill="#CACDD2"/>
</svg>
