<svg width="19" height="19" viewBox="0 0 19 19" fill="none" xmlns="http://www.w3.org/2000/svg">
<path d="M4.75 16.6251H14.25C13.4583 16.6251 11.875 16.1501 11.875 14.2501V12.6667H2.375V14.2501C2.375 16.1501 3.95833 16.6251 4.75 16.6251Z" fill="#838999"/>
<path d="M3.95833 10.2917V3.95833C3.95833 3.53841 4.12515 3.13568 4.42208 2.83875C4.71901 2.54181 5.12174 2.375 5.54167 2.375H15.0417C15.4616 2.375 15.8643 2.54181 16.1613 2.83875C16.4582 3.13568 16.625 3.53841 16.625 3.95833V14.25C16.625 15.0417 16.15 16.625 14.25 16.625M14.25 16.625H4.75C3.95833 16.625 2.375 16.15 2.375 14.25V12.6667H11.875V14.25C11.875 16.15 13.4583 16.625 14.25 16.625ZM7.125 5.54167H13.4583M7.125 8.70833H10.2917" stroke="#838999" stroke-width="2" stroke-linecap="round" stroke-linejoin="round"/>
</svg>
