<svg width="32" height="32" viewBox="0 0 32 32" fill="none" xmlns="http://www.w3.org/2000/svg">
<rect x="0.783333" y="0.783333" width="29.7667" height="29.7667" rx="14.8833" stroke="#CFD6DC" stroke-width="1.56667"/>
<path d="M11.9391 20.2894C11.2577 20.2894 10.6743 20.1119 10.1888 19.757C9.7033 19.402 9.33203 18.8839 9.075 18.2025C8.81797 17.5212 8.68945 16.6991 8.68945 15.7363C8.68945 14.7857 8.81797 13.9697 9.075 13.2883C9.33203 12.6029 9.7033 12.0807 10.1888 11.7217C10.6784 11.3627 11.2618 11.1831 11.9391 11.1831C12.6122 11.1831 13.1936 11.3627 13.6832 11.7217C14.1728 12.0807 14.5461 12.6029 14.8031 13.2883C15.0602 13.9697 15.1887 14.7857 15.1887 15.7363C15.1887 16.6991 15.0602 17.5212 14.8031 18.2025C14.5502 18.8839 14.1789 19.402 13.6893 19.757C13.2038 20.1119 12.6204 20.2894 11.9391 20.2894ZM11.9391 19.1327C12.3389 19.1327 12.6816 19.0022 12.9672 18.7411C13.2569 18.48 13.4751 18.0965 13.622 17.5906C13.773 17.0847 13.8464 16.4666 13.8423 15.7363C13.8423 15.01 13.7668 14.3919 13.6159 13.882C13.4649 13.372 13.2467 12.9844 12.9611 12.7192C12.6755 12.454 12.3348 12.3214 11.9391 12.3214C11.5392 12.3214 11.1965 12.454 10.9109 12.7192C10.6294 12.9844 10.4112 13.372 10.2561 13.882C10.1011 14.3919 10.0236 15.01 10.0236 15.7363C10.0236 16.4666 10.1011 17.0847 10.2561 17.5906C10.4112 18.0965 10.6294 18.48 10.9109 18.7411C11.1924 19.0022 11.5352 19.1327 11.9391 19.1327ZM16.584 19.1878L19.6622 16.0851C20.0294 15.7016 20.3109 15.3895 20.5068 15.1488C20.7067 14.9081 20.8576 14.6755 20.9596 14.4511C21.0657 14.2267 21.1187 13.988 21.1187 13.7351C21.1187 13.4495 21.0474 13.2006 20.9046 12.9885C20.7618 12.7722 20.5659 12.605 20.3171 12.4867C20.0682 12.3683 19.7887 12.3092 19.4786 12.3092C19.1523 12.3092 18.8687 12.3745 18.628 12.505C18.3873 12.6315 18.1996 12.813 18.065 13.0497C17.9344 13.2863 17.8691 13.5617 17.8691 13.8758H16.5901C16.586 13.3414 16.7084 12.8722 16.9573 12.4683C17.2062 12.0603 17.553 11.7441 17.9977 11.5197C18.4424 11.2953 18.9462 11.1831 19.5092 11.1831C20.0682 11.1831 20.5659 11.2933 21.0025 11.5136C21.4431 11.7298 21.7858 12.0297 22.0306 12.4132C22.2754 12.7926 22.3978 13.219 22.3978 13.6923C22.3937 14.035 22.3284 14.3634 22.202 14.6775C22.0796 14.9876 21.8654 15.3344 21.5594 15.7179C21.2575 16.0973 20.827 16.5624 20.2681 17.1132L18.4628 18.943V19.0104H22.5447V20.167H16.5901L16.584 19.1878Z" fill="#ABB7C2"/>
</svg>
