<svg width="32" height="32" viewBox="0 0 32 32" fill="none" xmlns="http://www.w3.org/2000/svg">
<rect x="0.783333" y="0.783333" width="29.7667" height="29.7667" rx="14.8833" stroke="#CFD6DC" stroke-width="1.56667"/>
<path d="M11.7493 20.2894C11.068 20.2894 10.4846 20.1119 9.99909 19.757C9.51359 19.402 9.14232 18.8839 8.88529 18.2025C8.62826 17.5212 8.49974 16.6991 8.49974 15.7363C8.49974 14.7857 8.62826 13.9697 8.88529 13.2883C9.14232 12.6029 9.51359 12.0807 9.99909 11.7217C10.4887 11.3627 11.0721 11.1831 11.7493 11.1831C12.4225 11.1831 13.0039 11.3627 13.4935 11.7217C13.9831 12.0807 14.3564 12.6029 14.6134 13.2883C14.8704 13.9697 14.999 14.7857 14.999 15.7363C14.999 16.6991 14.8704 17.5212 14.6134 18.2025C14.3605 18.8839 13.9892 19.402 13.4996 19.757C13.0141 20.1119 12.4307 20.2894 11.7493 20.2894ZM11.7493 19.1327C12.1492 19.1327 12.4919 19.0022 12.7775 18.7411C13.0671 18.48 13.2854 18.0965 13.4323 17.5906C13.5832 17.0847 13.6567 16.4666 13.6526 15.7363C13.6526 15.01 13.5771 14.3919 13.4262 13.882C13.2752 13.372 13.0569 12.9844 12.7714 12.7192C12.4858 12.454 12.1451 12.3214 11.7493 12.3214C11.3495 12.3214 11.0068 12.454 10.7212 12.7192C10.4397 12.9844 10.2214 13.372 10.0664 13.882C9.91137 14.3919 9.83385 15.01 9.83385 15.7363C9.83385 16.4666 9.91137 17.0847 10.0664 17.5906C10.2214 18.0965 10.4397 18.48 10.7212 18.7411C11.0027 19.0022 11.3454 19.1327 11.7493 19.1327ZM19.5398 20.2894C18.936 20.2894 18.3954 20.1874 17.9181 19.9834C17.4448 19.7794 17.0695 19.4918 16.7921 19.1205C16.5146 18.7492 16.3698 18.3249 16.3576 17.8476H17.7161C17.7325 18.1046 17.8222 18.329 17.9854 18.5208C18.1527 18.7125 18.3689 18.8614 18.6341 18.9675C18.9034 19.0736 19.2033 19.1266 19.5337 19.1266C19.8887 19.1266 20.2069 19.0675 20.4884 18.9492C20.774 18.8268 20.9943 18.6574 21.1493 18.4412C21.3044 18.2209 21.3819 17.97 21.3819 17.6885C21.3778 17.3947 21.2983 17.1336 21.1432 16.9051C20.9923 16.6726 20.7638 16.4931 20.4578 16.3666C20.1559 16.2401 19.7989 16.1769 19.3868 16.1769H18.628V15.0814H19.3868C19.7214 15.0814 20.0192 15.0223 20.2803 14.904C20.5414 14.7857 20.7414 14.6204 20.8801 14.4083C21.0229 14.1961 21.0943 13.9513 21.0943 13.6739C21.0943 13.4046 21.031 13.166 20.9046 12.9579C20.7822 12.7498 20.6047 12.5907 20.3721 12.4805C20.1396 12.3663 19.8703 12.3092 19.5643 12.3092C19.2624 12.3092 18.9829 12.3622 18.7259 12.4683C18.4689 12.5744 18.2588 12.7274 18.0956 12.9273C17.9365 13.1231 17.8508 13.3516 17.8385 13.6127H16.5411C16.5534 13.1394 16.6962 12.7172 16.9695 12.3459C17.247 11.9746 17.6121 11.689 18.065 11.4891C18.5219 11.2851 19.0237 11.1831 19.5704 11.1831C20.1375 11.1831 20.6353 11.2913 21.0637 11.5075C21.4961 11.7237 21.8266 12.0175 22.0551 12.3887C22.2876 12.7559 22.4019 13.1578 22.3978 13.5943C22.4019 13.9248 22.3407 14.2247 22.2142 14.4939C22.0877 14.7632 21.9041 14.9896 21.6634 15.1732C21.4268 15.3528 21.1493 15.4813 20.8311 15.5588V15.6261C21.2269 15.6791 21.5675 15.8015 21.8531 15.9933C22.1428 16.181 22.3631 16.4237 22.5141 16.7215C22.665 17.0194 22.7385 17.356 22.7344 17.7313C22.7385 18.2168 22.6018 18.6534 22.3243 19.041C22.051 19.4285 21.6695 19.7345 21.1799 19.9589C20.6944 20.1792 20.1477 20.2894 19.5398 20.2894Z" fill="#ABB7C2"/>
</svg>
