<svg width="32" height="32" viewBox="0 0 32 32" fill="none" xmlns="http://www.w3.org/2000/svg">
<rect x="0.783333" y="0.783333" width="29.7667" height="29.7667" rx="14.8833" stroke="#CFD6DC" stroke-width="1.56667"/>
<path d="M12.857 20.2894C12.1757 20.2894 11.5923 20.1119 11.1068 19.757C10.6213 19.402 10.25 18.8839 9.99297 18.2025C9.73594 17.5212 9.60742 16.6991 9.60742 15.7363C9.60742 14.7857 9.73594 13.9697 9.99297 13.2883C10.25 12.6029 10.6213 12.0807 11.1068 11.7217C11.5964 11.3627 12.1798 11.1831 12.857 11.1831C13.5302 11.1831 14.1116 11.3627 14.6012 11.7217C15.0908 12.0807 15.4641 12.6029 15.7211 13.2883C15.9781 13.9697 16.1066 14.7857 16.1066 15.7363C16.1066 16.6991 15.9781 17.5212 15.7211 18.2025C15.4681 18.8839 15.0969 19.402 14.6073 19.757C14.1218 20.1119 13.5384 20.2894 12.857 20.2894ZM12.857 19.1327C13.2569 19.1327 13.5996 19.0022 13.8852 18.7411C14.1748 18.48 14.3931 18.0965 14.54 17.5906C14.6909 17.0847 14.7644 16.4666 14.7603 15.7363C14.7603 15.01 14.6848 14.3919 14.5339 13.882C14.3829 13.372 14.1646 12.9844 13.879 12.7192C13.5934 12.454 13.2528 12.3214 12.857 12.3214C12.4572 12.3214 12.1145 12.454 11.8289 12.7192C11.5474 12.9844 11.3291 13.372 11.1741 13.882C11.0191 14.3919 10.9415 15.01 10.9415 15.7363C10.9415 16.4666 11.0191 17.0847 11.1741 17.5906C11.3291 18.0965 11.5474 18.48 11.8289 18.7411C12.1104 19.0022 12.4531 19.1327 12.857 19.1327ZM20.874 20.167H19.5154V12.658H19.4664L17.3551 14.0411V12.7498L19.5521 11.3055H20.874V20.167Z" fill="#ABB7C2"/>
</svg>
