<svg width="19" height="19" viewBox="0 0 19 19" fill="none" xmlns="http://www.w3.org/2000/svg">
<path fill-rule="evenodd" clip-rule="evenodd" d="M9.50001 0.989502C9.1721 0.989502 8.90626 1.25534 8.90626 1.58325V10.2699L7.57582 8.71767C7.36242 8.46869 6.98758 8.43988 6.73861 8.65331C6.48963 8.86666 6.46079 9.24152 6.6742 9.4905L9.04924 12.2613C9.16197 12.3929 9.32671 12.4687 9.50001 12.4687C9.67331 12.4687 9.83805 12.3929 9.95079 12.2613L12.3258 9.4905C12.5392 9.24152 12.5104 8.86666 12.2614 8.65331C12.0124 8.43988 11.6376 8.46869 11.4242 8.71767L10.0938 10.2699V1.58325C10.0938 1.25534 9.82792 0.989502 9.50001 0.989502Z" fill="#838999"/>
<path d="M11.2819 7.125V7.42447C11.8627 7.21979 12.5337 7.3222 13.0348 7.75174C13.7817 8.39198 13.8683 9.51647 13.2281 10.2634L10.8531 13.0342C10.5146 13.429 10.0206 13.6563 9.50065 13.6563C8.9806 13.6563 8.48661 13.429 8.14817 13.0342L5.77319 10.2634C5.13297 9.51647 5.21948 8.39198 5.9664 7.75174C6.46752 7.3222 7.13861 7.21979 7.71937 7.42447V7.125H6.33398C4.09481 7.125 2.97523 7.125 2.27961 7.82062C1.58398 8.51628 1.58398 9.63585 1.58398 11.875V12.6667C1.58398 14.9058 1.58398 16.0254 2.27961 16.721C2.97523 17.4167 4.09481 17.4167 6.33398 17.4167H12.6673C14.9065 17.4167 16.026 17.4167 16.7217 16.721C17.4173 16.0254 17.4173 14.9058 17.4173 12.6667V11.875C17.4173 9.63585 17.4173 8.51628 16.7217 7.82062C16.026 7.125 14.9065 7.125 12.6673 7.125H11.2819Z" fill="#838999"/>
</svg>
